STARTFONT 2.1
FONT -WRI-Mathematica7-Medium-R-Normal--36-360-75-75-p-120-Adobe-FontSpecific
SIZE 36 75 75
FONTBOUNDINGBOX 33 33 0 -8
STARTPROPERTIES 16
FOUNDRY "WRI"
FAMILY_NAME "Mathematica7"
WEIGHT_NAME "Medium"
SLANT "R"
SETWIDTH_NAME "Normal"
PIXEL_SIZE 36
POINT_SIZE 360
RESOLUTION_X 75
RESOLUTION_Y 75
SPACING "p"
AVERAGE_WIDTH 120
CHARSET_REGISTRY "Adobe"
CHARSET_ENCODING "FontSpecific"
FONT_DESCENT 8
FONT_ASCENT 25
DEFAULT_CHAR 32
ENDPROPERTIES
CHARS 224
STARTCHAR space
ENCODING 32
SWIDTH 263 0
DWIDTH 9 0
BBX 0 0 0 0
BITMAP
ENDCHAR
STARTCHAR exclam
ENCODING 33
SWIDTH 263 0
DWIDTH 9 0
BBX 0 0 0 0
BITMAP
ENDCHAR
STARTCHAR quotedbl
ENCODING 34
SWIDTH 263 0
DWIDTH 9 0
BBX 0 0 0 0
BITMAP
ENDCHAR
STARTCHAR numbersign
ENCODING 35
SWIDTH 263 0
DWIDTH 9 0
BBX 0 0 0 0
BITMAP
ENDCHAR
STARTCHAR dollar
ENCODING 36
SWIDTH 263 0
DWIDTH 9 0
BBX 0 0 0 0
BITMAP
ENDCHAR
STARTCHAR percent
ENCODING 37
SWIDTH 263 0
DWIDTH 9 0
BBX 0 0 0 0
BITMAP
ENDCHAR
STARTCHAR ampersand
ENCODING 38
SWIDTH 263 0
DWIDTH 9 0
BBX 0 0 0 0
BITMAP
ENDCHAR
STARTCHAR quotesingle
ENCODING 39
SWIDTH 263 0
DWIDTH 9 0
BBX 0 0 0 0
BITMAP
ENDCHAR
STARTCHAR parenleft
ENCODING 40
SWIDTH 263 0
DWIDTH 9 0
BBX 0 0 0 0
BITMAP
ENDCHAR
STARTCHAR parenright
ENCODING 41
SWIDTH 263 0
DWIDTH 9 0
BBX 0 0 0 0
BITMAP
ENDCHAR
STARTCHAR asterisk
ENCODING 42
SWIDTH 263 0
DWIDTH 9 0
BBX 0 0 0 0
BITMAP
ENDCHAR
STARTCHAR plus
ENCODING 43
SWIDTH 263 0
DWIDTH 9 0
BBX 0 0 0 0
BITMAP
ENDCHAR
STARTCHAR comma
ENCODING 44
SWIDTH 263 0
DWIDTH 9 0
BBX 0 0 0 0
BITMAP
ENDCHAR
STARTCHAR hyphen
ENCODING 45
SWIDTH 263 0
DWIDTH 9 0
BBX 0 0 0 0
BITMAP
ENDCHAR
STARTCHAR period
ENCODING 46
SWIDTH 263 0
DWIDTH 9 0
BBX 0 0 0 0
BITMAP
ENDCHAR
STARTCHAR slash
ENCODING 47
SWIDTH 263 0
DWIDTH 9 0
BBX 0 0 0 0
BITMAP
ENDCHAR
STARTCHAR DoubleZero
ENCODING 48
SWIDTH 676 0
DWIDTH 24 0
BBX 23 24 1 0
BITMAP
00fc00
07e780
0f03c0
1e03e0
3c0370
780638
780638
f80c1c
f00c1c
f00c1c
f0181e
f0181e
f0301e
f0301e
f0301c
f0601c
f8601c
f8c03c
78c038
3dc078
3f80f0
1f81e0
078380
01fe00
ENDCHAR
STARTCHAR DoubleOne
ENCODING 49
SWIDTH 362 0
DWIDTH 13 0
BBX 12 24 1 0
BITMAP
07c0
1bc0
73c0
13c0
13c0
13c0
13c0
13c0
13c0
13c0
13c0
13c0
13c0
13c0
13c0
13c0
13c0
13c0
13c0
13c0
13c0
13c0
13c0
fff0
ENDCHAR
STARTCHAR DoubleTwo
ENCODING 50
SWIDTH 499 0
DWIDTH 18 0
BBX 17 24 1 0
BITMAP
07f000
1cfc00
303e00
602700
601700
401380
c01380
801380
001380
001380
002700
002f00
003e00
007c00
00f800
00f000
01e000
038000
070000
0e0080
180180
300380
e03f00
ffff00
ENDCHAR
STARTCHAR DoubleThree
ENCODING 51
SWIDTH 499 0
DWIDTH 18 0
BBX 17 24 1 0
BITMAP
07f800
1cfc00
306e00
602700
c03380
801380
801380
802700
002700
003e00
00f800
01f000
00fc00
006e00
002700
002300
002380
002380
802700
802700
c05e00
e0fe00
7ff800
0fe000
ENDCHAR
STARTCHAR DoubleFour
ENCODING 52
SWIDTH 539 0
DWIDTH 19 0
BBX 18 24 1 0
BITMAP
003e00
004e00
00ce00
00ce00
014e00
024e00
064e00
0c4e00
084e00
104e00
304e00
604e00
404e00
ffcfc0
ffcfc0
ffcfc0
ffcfc0
004e00
004e00
004e00
004e00
004e00
004e00
07ff80
ENDCHAR
STARTCHAR DoubleFive
ENCODING 53
SWIDTH 478 0
DWIDTH 17 0
BBX 16 24 1 0
BITMAP
07fc
0bc0
0bc0
0b80
1380
1780
1700
1700
3f00
1ff0
083c
000e
0006
0002
0003
0003
0003
0003
0006
8006
c00c
f038
3ff0
0fc0
ENDCHAR
STARTCHAR DoubleSix
ENCODING 54
SWIDTH 539 0
DWIDTH 19 0
BBX 20 24 0 0
BITMAP
001fc0
00f800
03e000
05c000
0b8000
138000
370000
270000
4f0000
4f7f00
cee780
8f80c0
8f0060
9e0060
9e0020
9e0020
ce0030
4e0020
4f0020
270060
3780c0
1bc1c0
05ff80
03fc00
ENDCHAR
STARTCHAR DoubleSeven
ENCODING 55
SWIDTH 480 0
DWIDTH 17 0
BBX 16 23 1 0
BITMAP
7fff
c02f
804f
005e
005e
00be
00bc
013c
0178
0178
02f8
02f0
02f0
05f0
05e0
0be0
0be0
0bc0
17c0
17c0
2f80
3f80
3f80
ENDCHAR
STARTCHAR DoubleEight
ENCODING 56
SWIDTH 588 0
DWIDTH 21 0
BBX 20 25 1 0
BITMAP
03f800
0ffe00
1bc380
278080
6780c0
478040
478040
4780c0
63e180
31f700
10fe00
0c3e00
0e1f80
3d07c0
70c3c0
e021e0
c010e0
c008f0
c004f0
c004f0
c004e0
e004e0
700bc0
1f3f80
07fc00
ENDCHAR
STARTCHAR DoubleNine
ENCODING 57
SWIDTH 539 0
DWIDTH 19 0
BBX 19 24 0 0
BITMAP
03f800
0ffe00
3c5f00
303780
601bc0
6009c0
e005c0
c004c0
c004e0
c004e0
6004e0
6004e0
600ce0
383ce0
0ff4c0
0005c0
000980
000b80
001700
001e00
003c00
007800
43e000
3f0000
ENDCHAR
STARTCHAR colon
ENCODING 58
SWIDTH 263 0
DWIDTH 9 0
BBX 0 0 0 0
BITMAP
ENDCHAR
STARTCHAR semicolon
ENCODING 59
SWIDTH 263 0
DWIDTH 9 0
BBX 0 0 0 0
BITMAP
ENDCHAR
STARTCHAR less
ENCODING 60
SWIDTH 263 0
DWIDTH 9 0
BBX 0 0 0 0
BITMAP
ENDCHAR
STARTCHAR equal
ENCODING 61
SWIDTH 263 0
DWIDTH 9 0
BBX 0 0 0 0
BITMAP
ENDCHAR
STARTCHAR greater
ENCODING 62
SWIDTH 263 0
DWIDTH 9 0
BBX 0 0 0 0
BITMAP
ENDCHAR
STARTCHAR question
ENCODING 63
SWIDTH 263 0
DWIDTH 9 0
BBX 0 0 0 0
BITMAP
ENDCHAR
STARTCHAR at
ENCODING 64
SWIDTH 263 0
DWIDTH 9 0
BBX 0 0 0 0
BITMAP
ENDCHAR
STARTCHAR DoubleCapA
ENCODING 65
SWIDTH 784 0
DWIDTH 28 0
BBX 25 24 1 0
BITMAP
003e0000
00460000
00460000
00cf0000
008f0000
019f8000
01138000
0113c000
0231c000
0221e000
0661e000
0440e000
0c40f000
08c07000
08807800
11fff800
11003c00
31003c00
23001e00
62001e00
46000e00
44000f00
fc000f00
fc000780
ENDCHAR
STARTCHAR DoubleCapB
ENCODING 66
SWIDTH 689 0
DWIDTH 25 0
BBX 21 24 1 0
BITMAP
fffe00
8f07c0
8f01e0
8f01e0
8f00f0
8f00f0
8f00f0
8f00f0
8f00e0
8f01e0
8f03c0
8fff00
8f07c0
8f01e0
8f00f0
8f00f0
8f0078
8f0078
8f0078
8f00f0
8f00f0
8f01e0
8f83c0
ffff00
ENDCHAR
STARTCHAR DoubleCapC
ENCODING 67
SWIDTH 645 0
DWIDTH 23 0
BBX 22 25 1 -1
BITMAP
00ff00
0301c0
0e0070
1e0038
3a0018
3a0018
720008
720008
f20000
e20000
e20000
e20000
e20000
e20000
e20000
e20000
720000
720000
7a0000
3a0004
3e0018
1e0030
0f80e0
03ff80
00fe00
ENDCHAR
STARTCHAR DoubleCapD
ENCODING 68
SWIDTH 776 0
DWIDTH 28 0
BBX 24 24 1 0
BITMAP
fffe00
8f07c0
8f00f0
8f0078
8f003c
8f003c
8f001e
8f001e
8f000f
8f000f
8f000f
8f000f
8f000f
8f000f
8f000f
8f000f
8f001e
8f001e
8f001c
8f003c
8f0078
8f00f0
8f83c0
fffe00
ENDCHAR
STARTCHAR DoubleCapE
ENCODING 69
SWIDTH 619 0
DWIDTH 22 0
BBX 20 24 1 0
BITMAP
ffffe0
8f0000
8f0000
8f0000
8f0000
8f0000
8f0000
8f0000
8f0000
8f0000
8f0000
8fff80
8f0000
8f0000
8f0000
8f0000
8f0000
8f0000
8f0000
8f0000
8f0000
8f0000
8f0000
fffff0
ENDCHAR
STARTCHAR DoubleCapF
ENCODING 70
SWIDTH 602 0
DWIDTH 22 0
BBX 20 24 1 0
BITMAP
fffff0
8f0000
8f0000
8f0000
8f0000
8f0000
8f0000
8f0000
8f0000
8f0000
8f0000
8fff80
8f0000
8f0000
8f0000
8f0000
8f0000
8f0000
8f0000
8f0000
8f0000
8f0000
ff0000
ff0000
ENDCHAR
STARTCHAR DoubleCapG
ENCODING 71
SWIDTH 694 0
DWIDTH 25 0
BBX 21 25 1 -1
BITMAP
00ff00
0381c0
0f0060
1f0030
3b0030
730010
730010
f30000
e30000
e30000
e30000
e30038
e30038
e30038
e30038
e30038
f30038
730038
730038
3b0038
3f0038
1f0078
0f8070
03ffe0
00ff00
ENDCHAR
STARTCHAR DoubleCapH
ENCODING 72
SWIDTH 721 0
DWIDTH 26 0
BBX 22 24 1 0
BITMAP
ff003c
8f003c
8f003c
8f003c
8f003c
8f003c
8f003c
8f003c
8f003c
8f003c
8f003c
8f003c
8ffffc
8f003c
8f003c
8f003c
8f003c
8f003c
8f003c
8f003c
8f003c
8f003c
ff003c
ff003c
ENDCHAR
STARTCHAR DoubleCapI
ENCODING 73
SWIDTH 312 0
DWIDTH 11 0
BBX 8 24 1 0
BITMAP
ff
ff
8f
8f
8f
8f
8f
8f
8f
8f
8f
8f
8f
8f
8f
8f
8f
8f
8f
8f
8f
8f
ff
ff
ENDCHAR
STARTCHAR DoubleCapJ
ENCODING 74
SWIDTH 475 0
DWIDTH 17 0
BBX 14 24 1 0
BITMAP
03fc
03fc
033c
033c
033c
033c
033c
033c
033c
033c
033c
033c
033c
033c
033c
033c
033c
033c
033c
0378
c378
e7f0
efc0
7e00
ENDCHAR
STARTCHAR DoubleCapK
ENCODING 75
SWIDTH 679 0
DWIDTH 24 0
BBX 25 24 0 0
BITMAP
ff800e00
ff801c00
c7803800
c7807000
c780e000
c781c000
c7830000
c7860000
c78c0000
c7980000
c7b00000
c7f80000
c7fc0000
c79e0000
c78f0000
c7878000
c787c000
c783e000
c781f000
c780f800
c7807c00
c7803e00
ff801f00
ff800f80
ENDCHAR
STARTCHAR DoubleCapL
ENCODING 76
SWIDTH 611 0
DWIDTH 22 0
BBX 21 24 0 0
BITMAP
ff8000
c78000
c78000
c78000
c78000
c78000
c78000
c78000
c78000
c78000
c78000
c78000
c78000
c78000
c78000
c78000
c78000
c78000
c78000
c78000
c78000
c78000
c7c000
fffff8
ENDCHAR
STARTCHAR DoubleCapM
ENCODING 77
SWIDTH 769 0
DWIDTH 28 0
BBX 24 24 1 0
BITMAP
ff000f
ff001f
c7801f
c7803f
e3c03f
e3c02f
b1e06f
b1e06f
98f0cf
98f0cf
8c718f
8c798f
863b0f
863f0f
833e0f
831e0f
819c0f
818c0f
80cc0f
80d80f
80780f
80700f
80300f
80200f
ENDCHAR
STARTCHAR DoubleCapN
ENCODING 78
SWIDTH 628 0
DWIDTH 23 0
BBX 19 24 0 0
BITMAP
ff8060
ffc060
c7e060
e3e060
f1f060
f0f860
d87c60
cc7e60
c63e60
c71f60
c30fe0
c187e0
c0c7e0
c063e0
c071e0
c030e0
c01860
c00c60
c00660
c00760
c00360
c001e0
c000e0
c000e0
ENDCHAR
STARTCHAR DoubleCapO
ENCODING 79
SWIDTH 744 0
DWIDTH 27 0
BBX 24 25 0 -1
BITMAP
007f00
03c1e0
078070
0e8038
1e801c
3c801e
3c801e
78800f
78800f
78800f
78800f
f8800f
f8800f
78800f
78800f
78800f
78800f
78800e
3c801e
3c801c
1e803c
0f8078
0780f0
03e3c0
007f00
ENDCHAR
STARTCHAR DoubleCapP
ENCODING 80
SWIDTH 625 0
DWIDTH 22 0
BBX 21 24 0 0
BITMAP
ffff00
c787c0
c781e0
c780f0
c78078
c78078
c78078
c78078
c78078
c78078
c780f0
c781e0
c783c0
c7ff00
c78000
c78000
c78000
c78000
c78000
c78000
c78000
c78000
c78000
ff8000
ENDCHAR
STARTCHAR DoubleCapQ
ENCODING 81
SWIDTH 745 0
DWIDTH 27 0
BBX 24 31 1 -7
BITMAP
00fe00
070380
0e00e0
1e0070
3a0038
320038
72001c
72001c
e2000e
e2000e
e2000e
e2000e
e2000e
e2000e
e2000e
e2000e
e2000c
72001c
72001c
7a0038
3a0038
1e0070
0e00e0
0703c0
01ff00
00fc00
003f00
001f80
0007f0
0001ff
00003e
ENDCHAR
STARTCHAR DoubleCapR
ENCODING 82
SWIDTH 727 0
DWIDTH 26 0
BBX 23 24 1 0
BITMAP
fffe00
8f07c0
8f01e0
8f00f0
8f00f0
8f00f0
8f00f0
8f00f0
8f00f0
8f01e0
8f03e0
8f0f80
8ffe00
8f3c00
8f1e00
8f0f00
8f0780
8f07c0
8f03e0
8f01e0
8f00f0
8f00f8
8f007c
ff003e
ENDCHAR
STARTCHAR DoubleCapS
ENCODING 83
SWIDTH 607 0
DWIDTH 22 0
BBX 18 24 1 0
BITMAP
07f800
1f8600
670300
4f0180
cf00c0
8f00c0
8f0040
c78040
47c000
63f000
30fc00
1c7e00
0e1f00
030f80
01c780
0063c0
0021c0
8031c0
c011c0
4019c0
6019c0
701380
381600
0ff800
ENDCHAR
STARTCHAR DoubleCapT
ENCODING 84
SWIDTH 547 0
DWIDTH 20 0
BBX 20 24 1 0
BITMAP
fffff0
031c00
031c00
031c00
031c00
031c00
031c00
031c00
031c00
031c00
031c00
031c00
031c00
031c00
031c00
031c00
031c00
031c00
031c00
031c00
031c00
031c00
031c00
03fc00
ENDCHAR
STARTCHAR DoubleCapU
ENCODING 85
SWIDTH 668 0
DWIDTH 24 0
BBX 20 25 1 -1
BITMAP
ff0030
8f0030
8f0030
8f0030
8f0030
8f0030
8f0030
8f0030
8f0030
8f0030
8f0030
8f0030
8f0030
8f0030
8f0030
8f0030
8f0030
8f0030
4f0030
670060
270060
3380c0
1fc180
07ff00
00fc00
ENDCHAR
STARTCHAR DoubleCapV
ENCODING 86
SWIDTH 723 0
DWIDTH 26 0
BBX 22 24 1 0
BITMAP
ff800c
47800c
638018
63c018
33c018
31e030
19e030
18f060
08f060
0c7060
0478c0
0638c0
023c80
033d80
011f80
019f00
018f00
008f00
00c600
004600
006400
002c00
003c00
003800
ENDCHAR
STARTCHAR DoubleCapW
ENCODING 87
SWIDTH 989 0
DWIDTH 36 0
BBX 32 25 1 -1
BITMAP
fe078003
cf03c003
cf03c002
4701e006
6781e006
6780e00c
2380f00c
33c0f00c
33c1f818
11c1f818
19e17818
19e33c30
08e33c30
0cf61e20
0cf61e60
047e1e60
067c0fc0
063c0fc0
02380fc0
03380780
03180780
01300380
01b00300
01b00300
01e00100
ENDCHAR
STARTCHAR DoubleCapX
ENCODING 88
SWIDTH 807 0
DWIDTH 29 0
BBX 26 24 1 0
BITMAP
ff8001c0
e3c00380
61e00700
31e00e00
38f01800
18783000
0c7c6000
063cc000
061f8000
031f0000
018f0000
01878000
00c7c000
0063e000
0071e000
00f1f000
0198f800
031c7800
060c3c00
0c063e00
18031f00
30030f00
60018f80
c000ffc0
ENDCHAR
STARTCHAR DoubleCapY
ENCODING 89
SWIDTH 651 0
DWIDTH 23 0
BBX 20 24 1 0
BITMAP
ff8030
63c060
73c060
31e0c0
18f180
18f980
0c7b00
063e00
063e00
031c00
019800
019800
00f000
007000
007000
007000
007000
007000
007000
007000
007000
007000
007000
007000
ENDCHAR
STARTCHAR DoubleCapZ
ENCODING 90
SWIDTH 750 0
DWIDTH 27 0
BBX 25 24 0 0
BITMAP
1fffff80
0001e300
0003e300
0007c600
00078c00
000f8800
001f1800
001e3000
003c6000
007c6000
0078c000
00f18000
01f10000
03e30000
03c60000
078c0000
0f880000
0f180000
1e300000
3e200000
3c600000
78c00000
ffffff80
ffffff80
ENDCHAR
STARTCHAR bracketleft
ENCODING 91
SWIDTH 263 0
DWIDTH 9 0
BBX 0 0 0 0
BITMAP
ENDCHAR
STARTCHAR backslash
ENCODING 92
SWIDTH 263 0
DWIDTH 9 0
BBX 0 0 0 0
BITMAP
ENDCHAR
STARTCHAR bracketright
ENCODING 93
SWIDTH 263 0
DWIDTH 9 0
BBX 0 0 0 0
BITMAP
ENDCHAR
STARTCHAR asciicircum
ENCODING 94
SWIDTH 263 0
DWIDTH 9 0
BBX 0 0 0 0
BITMAP
ENDCHAR
STARTCHAR underscore
ENCODING 95
SWIDTH 263 0
DWIDTH 9 0
BBX 0 0 0 0
BITMAP
ENDCHAR
STARTCHAR grave
ENCODING 96
SWIDTH 263 0
DWIDTH 9 0
BBX 0 0 0 0
BITMAP
ENDCHAR
STARTCHAR DoubleA
ENCODING 97
SWIDTH 589 0
DWIDTH 21 0
BBX 17 16 1 0
BITMAP
1fc000
71f000
e0f800
e0ec00
e0e400
00e400
03e400
1ce400
30e400
60e400
e0e400
e0e400
e0e480
e1e580
feff00
783c00
ENDCHAR
STARTCHAR DoubleB
ENCODING 98
SWIDTH 605 0
DWIDTH 22 0
BBX 20 25 0 0
BITMAP
030000
3f0000
ff0000
270000
270000
270000
270000
270000
270000
271f00
277fc0
27c3c0
2701e0
2700e0
2700f0
270070
270070
270070
270070
270070
270060
2700c0
3701c0
1f8300
03fc00
ENDCHAR
STARTCHAR DoubleC
ENCODING 99
SWIDTH 460 0
DWIDTH 17 0
BBX 14 17 0 0
BITMAP
07e0
1c78
343c
343c
641c
6400
e400
e400
e400
e400
f400
f404
7c08
7c18
3ff0
1fe0
0f80
ENDCHAR
STARTCHAR DoubleD
ENCODING 100
SWIDTH 591 0
DWIDTH 21 0
BBX 20 25 0 0
BITMAP
0000c0
003fc0
005e40
000e40
000e40
000e40
000e40
000e40
07ce40
1c3e40
381e40
300e40
700e40
600e40
e00e40
e00e40
e00e40
e00e40
e00e40
f00e40
700e40
780e60
3c3ff0
1fef80
0f8c00
ENDCHAR
STARTCHAR DoubleE
ENCODING 101
SWIDTH 477 0
DWIDTH 17 0
BBX 14 16 1 0
BITMAP
0f80
39e0
28f0
4870
4878
cff8
c800
c800
c800
c800
e804
e808
7818
7870
3fe0
1f80
ENDCHAR
STARTCHAR DoubleF
ENCODING 102
SWIDTH 528 0
DWIDTH 19 0
BBX 16 25 0 0
BITMAP
003e
01e7
03c3
07c3
05c0
05c0
09c0
09c0
09c0
f9fc
09c0
09c0
09c0
09c0
09c0
09c0
09c0
09c0
09c0
09c0
09c0
09c0
09c0
09c0
0fc0
ENDCHAR
STARTCHAR DoubleG
ENCODING 103
SWIDTH 515 0
DWIDTH 19 0
BBX 16 25 0 -8
BITMAP
0780
0ff0
1a7f
3238
623c
621c
621c
621c
721c
3a18
0e30
05c0
0800
1000
3800
3ffc
1ffe
17ff
3203
6201
e201
e202
fa0c
7ff8
1fc0
ENDCHAR
STARTCHAR DoubleH
ENCODING 104
SWIDTH 609 0
DWIDTH 22 0
BBX 19 25 0 0
BITMAP
018000
0f8000
fb8000
138000
138000
138000
138000
138000
138f80
13bfc0
13e1c0
13c0e0
1380e0
1380e0
1380e0
1380e0
1380e0
1380e0
1380e0
1380e0
1380e0
1380e0
1380e0
1380e0
1f80e0
ENDCHAR
STARTCHAR DoubleI
ENCODING 105
SWIDTH 345 0
DWIDTH 12 0
BBX 9 25 0 0
BITMAP
0300
0780
0780
0300
0000
0000
0000
0000
0080
0780
3e80
fc80
1c80
1c80
1c80
1c80
1c80
1c80
1c80
1c80
1c80
1c80
1c80
1c80
1f80
ENDCHAR
STARTCHAR DoubleJ
ENCODING 106
SWIDTH 457 0
DWIDTH 16 0
BBX 13 33 0 -8
BITMAP
0030
0070
0070
0030
0000
0000
0000
0000
0008
0078
03e8
0fc8
01c8
01c8
01c8
01c8
01c8
01c8
01c8
01c8
01c8
01c8
01c8
01c8
01c8
01c8
01c8
01c8
01d8
01d0
e1f0
f3c0
7f00
ENDCHAR
STARTCHAR DoubleK
ENCODING 107
SWIDTH 608 0
DWIDTH 22 0
BBX 19 24 0 0
BITMAP
018000
1f8000
fb8000
138000
138000
138000
138000
138000
1380c0
138180
138300
138400
138800
139000
13b000
13f000
13b800
13bc00
139e00
138f00
138700
138380
1383c0
1f81e0
ENDCHAR
STARTCHAR DoubleL
ENCODING 108
SWIDTH 357 0
DWIDTH 13 0
BBX 9 25 0 0
BITMAP
0180
0f80
fc80
1c80
1c80
1c80
1c80
1c80
1c80
1c80
1c80
1c80
1c80
1c80
1c80
1c80
1c80
1c80
1c80
1c80
1c80
1c80
1c80
1c80
1f80
ENDCHAR
STARTCHAR DoubleM
ENCODING 109
SWIDTH 839 0
DWIDTH 30 0
BBX 27 17 0 0
BITMAP
018f0780
0f9f9fc0
fce3b1c0
1cc1e0e0
1c81c0e0
1c81c0e0
1c81c0e0
1c81c0e0
1c81c0e0
1c81c0e0
1c81c0e0
1c81c0e0
1c81c0e0
1c81c0e0
1c81c0e0
1c81c0e0
1f81c0e0
ENDCHAR
STARTCHAR DoubleN
ENCODING 110
SWIDTH 581 0
DWIDTH 21 0
BBX 18 17 0 0
BITMAP
018f00
1fbf80
fce380
1cc1c0
1c81c0
1c81c0
1c81c0
1c81c0
1c81c0
1c81c0
1c81c0
1c81c0
1c81c0
1c81c0
1c81c0
1c81c0
1f81c0
ENDCHAR
STARTCHAR DoubleO
ENCODING 111
SWIDTH 526 0
DWIDTH 19 0
BBX 16 17 0 0
BITMAP
07e0
1c78
343c
741e
640e
e40f
e407
e407
e407
e407
e407
f406
7406
740c
3c1c
1c30
07c0
ENDCHAR
STARTCHAR DoubleP
ENCODING 112
SWIDTH 648 0
DWIDTH 23 0
BBX 20 24 0 -8
BITMAP
079f80
fbbfc0
13c1e0
1380f0
138070
138070
138070
138070
138070
138070
138070
138060
1380e0
1380c0
13e180
13be00
138000
138000
138000
138000
138000
138000
1f8000
1f8000
ENDCHAR
STARTCHAR DoubleQ
ENCODING 113
SWIDTH 593 0
DWIDTH 21 0
BBX 18 25 0 -8
BITMAP
03e040
0c3fc0
181e40
380e40
700e40
700e40
700e40
e00e40
e00e40
e00e40
f00e40
f00e40
700e40
780e40
3c1e40
3fee40
0f8e40
000e40
000e40
000e40
000e40
000e40
000e40
000fc0
000fc0
ENDCHAR
STARTCHAR DoubleR
ENCODING 114
SWIDTH 495 0
DWIDTH 18 0
BBX 16 17 0 0
BITMAP
018e
079f
3fbf
f3c6
1380
1380
1380
1380
1380
1380
1380
1380
1380
1380
1380
1380
1f80
ENDCHAR
STARTCHAR DoubleS
ENCODING 115
SWIDTH 452 0
DWIDTH 16 0
BBX 13 16 0 0
BITMAP
1fc0
7e20
dc10
9c18
9e08
cf00
6780
31e0
0cf0
0630
0138
8198
c098
6090
70a0
1fc0
ENDCHAR
STARTCHAR DoubleT
ENCODING 116
SWIDTH 416 0
DWIDTH 15 0
BBX 13 21 0 0
BITMAP
0080
0180
0380
0f80
1b80
33f0
f380
1380
1380
1380
1380
1380
1380
1380
1380
1380
1380
1380
1388
09f0
0fc0
ENDCHAR
STARTCHAR DoubleU
ENCODING 117
SWIDTH 545 0
DWIDTH 20 0
BBX 18 17 1 0
BITMAP
e07e00
e07200
e07200
e07200
e07200
e07200
e07200
e07200
e07200
e07200
e07200
e07200
e07200
e0f200
f1f7c0
7f7e00
3c6000
ENDCHAR
STARTCHAR DoubleV
ENCODING 118
SWIDTH 502 0
DWIDTH 18 0
BBX 15 16 0 0
BITMAP
fe02
cf04
4704
6708
2388
3390
11d0
19e0
18e0
08c0
0cc0
0480
0680
0300
0300
0100
ENDCHAR
STARTCHAR DoubleW
ENCODING 119
SWIDTH 742 0
DWIDTH 27 0
BBX 23 16 0 0
BITMAP
fe1806
ce1c06
471c0c
673e0c
27b60c
33a618
33e718
11c330
19c330
08c3b0
0c83e0
0d81e0
0781c0
0701c0
0300c0
020080
ENDCHAR
STARTCHAR DoubleX
ENCODING 120
SWIDTH 571 0
DWIDTH 21 0
BBX 19 16 0 0
BITMAP
ff00c0
678100
238200
31c400
19e800
08f000
0c7000
067800
023c00
031c00
078e00
0c8f00
18c780
306380
6033c0
c01fe0
ENDCHAR
STARTCHAR DoubleY
ENCODING 121
SWIDTH 506 0
DWIDTH 18 0
BBX 15 24 0 -8
BITMAP
fe02
4f06
6704
270c
338c
3388
11d8
19d0
08f0
0cf0
0460
0660
0240
0340
01c0
0180
0180
0180
0100
0300
6600
fe00
fc00
7800
ENDCHAR
STARTCHAR DoubleZ
ENCODING 122
SWIDTH 574 0
DWIDTH 21 0
BBX 18 16 0 0
BITMAP
7fffc0
0038c0
007980
00f300
00e300
01e600
03c400
038c00
079800
0f1000
0e3000
1e6000
3c4000
78c000
798000
ffffc0
ENDCHAR
STARTCHAR braceleft
ENCODING 123
SWIDTH 263 0
DWIDTH 9 0
BBX 0 0 0 0
BITMAP
ENDCHAR
STARTCHAR bar
ENCODING 124
SWIDTH 263 0
DWIDTH 9 0
BBX 0 0 0 0
BITMAP
ENDCHAR
STARTCHAR braceright
ENCODING 125
SWIDTH 263 0
DWIDTH 9 0
BBX 0 0 0 0
BITMAP
ENDCHAR
STARTCHAR asciitilde
ENCODING 126
SWIDTH 263 0
DWIDTH 9 0
BBX 0 0 0 0
BITMAP
ENDCHAR
STARTCHAR DEL
ENCODING 127
SWIDTH 263 0
DWIDTH 9 0
BBX 0 0 0 0
BITMAP
ENDCHAR
STARTCHAR Adieresis
ENCODING 128
SWIDTH 263 0
DWIDTH 9 0
BBX 0 0 0 0
BITMAP
ENDCHAR
STARTCHAR Aring
ENCODING 129
SWIDTH 263 0
DWIDTH 9 0
BBX 0 0 0 0
BITMAP
ENDCHAR
STARTCHAR Ccedilla
ENCODING 130
SWIDTH 263 0
DWIDTH 9 0
BBX 0 0 0 0
BITMAP
ENDCHAR
STARTCHAR Eacute
ENCODING 131
SWIDTH 263 0
DWIDTH 9 0
BBX 0 0 0 0
BITMAP
ENDCHAR
STARTCHAR Ntilde
ENCODING 132
SWIDTH 263 0
DWIDTH 9 0
BBX 0 0 0 0
BITMAP
ENDCHAR
STARTCHAR Odieresis
ENCODING 133
SWIDTH 263 0
DWIDTH 9 0
BBX 0 0 0 0
BITMAP
ENDCHAR
STARTCHAR Udieresis
ENCODING 134
SWIDTH 263 0
DWIDTH 9 0
BBX 0 0 0 0
BITMAP
ENDCHAR
STARTCHAR aacute
ENCODING 135
SWIDTH 263 0
DWIDTH 9 0
BBX 0 0 0 0
BITMAP
ENDCHAR
STARTCHAR agrave
ENCODING 136
SWIDTH 263 0
DWIDTH 9 0
BBX 0 0 0 0
BITMAP
ENDCHAR
STARTCHAR acircumflex
ENCODING 137
SWIDTH 263 0
DWIDTH 9 0
BBX 0 0 0 0
BITMAP
ENDCHAR
STARTCHAR adieresis
ENCODING 138
SWIDTH 263 0
DWIDTH 9 0
BBX 0 0 0 0
BITMAP
ENDCHAR
STARTCHAR atilde
ENCODING 139
SWIDTH 263 0
DWIDTH 9 0
BBX 0 0 0 0
BITMAP
ENDCHAR
STARTCHAR aring
ENCODING 140
SWIDTH 263 0
DWIDTH 9 0
BBX 0 0 0 0
BITMAP
ENDCHAR
STARTCHAR ccedilla
ENCODING 141
SWIDTH 263 0
DWIDTH 9 0
BBX 0 0 0 0
BITMAP
ENDCHAR
STARTCHAR eacute
ENCODING 142
SWIDTH 263 0
DWIDTH 9 0
BBX 0 0 0 0
BITMAP
ENDCHAR
STARTCHAR egrave
ENCODING 143
SWIDTH 263 0
DWIDTH 9 0
BBX 0 0 0 0
BITMAP
ENDCHAR
STARTCHAR ecircumflex
ENCODING 144
SWIDTH 263 0
DWIDTH 9 0
BBX 0 0 0 0
BITMAP
ENDCHAR
STARTCHAR edieresis
ENCODING 145
SWIDTH 263 0
DWIDTH 9 0
BBX 0 0 0 0
BITMAP
ENDCHAR
STARTCHAR iacute
ENCODING 146
SWIDTH 263 0
DWIDTH 9 0
BBX 0 0 0 0
BITMAP
ENDCHAR
STARTCHAR igrave
ENCODING 147
SWIDTH 263 0
DWIDTH 9 0
BBX 0 0 0 0
BITMAP
ENDCHAR
STARTCHAR icircumflex
ENCODING 148
SWIDTH 263 0
DWIDTH 9 0
BBX 0 0 0 0
BITMAP
ENDCHAR
STARTCHAR idieresis
ENCODING 149
SWIDTH 263 0
DWIDTH 9 0
BBX 0 0 0 0
BITMAP
ENDCHAR
STARTCHAR ntilde
ENCODING 150
SWIDTH 263 0
DWIDTH 9 0
BBX 0 0 0 0
BITMAP
ENDCHAR
STARTCHAR oacute
ENCODING 151
SWIDTH 263 0
DWIDTH 9 0
BBX 0 0 0 0
BITMAP
ENDCHAR
STARTCHAR ograve
ENCODING 152
SWIDTH 263 0
DWIDTH 9 0
BBX 0 0 0 0
BITMAP
ENDCHAR
STARTCHAR ocircumflex
ENCODING 153
SWIDTH 263 0
DWIDTH 9 0
BBX 0 0 0 0
BITMAP
ENDCHAR
STARTCHAR odieresis
ENCODING 154
SWIDTH 263 0
DWIDTH 9 0
BBX 0 0 0 0
BITMAP
ENDCHAR
STARTCHAR otilde
ENCODING 155
SWIDTH 263 0
DWIDTH 9 0
BBX 0 0 0 0
BITMAP
ENDCHAR
STARTCHAR uacute
ENCODING 156
SWIDTH 263 0
DWIDTH 9 0
BBX 0 0 0 0
BITMAP
ENDCHAR
STARTCHAR ugrave
ENCODING 157
SWIDTH 263 0
DWIDTH 9 0
BBX 0 0 0 0
BITMAP
ENDCHAR
STARTCHAR ucircumflex
ENCODING 158
SWIDTH 263 0
DWIDTH 9 0
BBX 0 0 0 0
BITMAP
ENDCHAR
STARTCHAR udieresis
ENCODING 159
SWIDTH 263 0
DWIDTH 9 0
BBX 0 0 0 0
BITMAP
ENDCHAR
STARTCHAR dagger
ENCODING 160
SWIDTH 263 0
DWIDTH 9 0
BBX 0 0 0 0
BITMAP
ENDCHAR
STARTCHAR degree
ENCODING 161
SWIDTH 263 0
DWIDTH 9 0
BBX 0 0 0 0
BITMAP
ENDCHAR
STARTCHAR cent
ENCODING 162
SWIDTH 263 0
DWIDTH 9 0
BBX 0 0 0 0
BITMAP
ENDCHAR
STARTCHAR sterling
ENCODING 163
SWIDTH 263 0
DWIDTH 9 0
BBX 0 0 0 0
BITMAP
ENDCHAR
STARTCHAR section
ENCODING 164
SWIDTH 263 0
DWIDTH 9 0
BBX 0 0 0 0
BITMAP
ENDCHAR
STARTCHAR bullet
ENCODING 165
SWIDTH 263 0
DWIDTH 9 0
BBX 0 0 0 0
BITMAP
ENDCHAR
STARTCHAR paragraph
ENCODING 166
SWIDTH 263 0
DWIDTH 9 0
BBX 0 0 0 0
BITMAP
ENDCHAR
STARTCHAR germandbls
ENCODING 167
SWIDTH 263 0
DWIDTH 9 0
BBX 0 0 0 0
BITMAP
ENDCHAR
STARTCHAR registered
ENCODING 168
SWIDTH 263 0
DWIDTH 9 0
BBX 0 0 0 0
BITMAP
ENDCHAR
STARTCHAR copyright
ENCODING 169
SWIDTH 263 0
DWIDTH 9 0
BBX 0 0 0 0
BITMAP
ENDCHAR
STARTCHAR trademark
ENCODING 170
SWIDTH 263 0
DWIDTH 9 0
BBX 0 0 0 0
BITMAP
ENDCHAR
STARTCHAR acute
ENCODING 171
SWIDTH 263 0
DWIDTH 9 0
BBX 0 0 0 0
BITMAP
ENDCHAR
STARTCHAR dieresis
ENCODING 172
SWIDTH 263 0
DWIDTH 9 0
BBX 0 0 0 0
BITMAP
ENDCHAR
STARTCHAR notequal
ENCODING 173
SWIDTH 263 0
DWIDTH 9 0
BBX 0 0 0 0
BITMAP
ENDCHAR
STARTCHAR AE
ENCODING 174
SWIDTH 263 0
DWIDTH 9 0
BBX 0 0 0 0
BITMAP
ENDCHAR
STARTCHAR Oslash
ENCODING 175
SWIDTH 263 0
DWIDTH 9 0
BBX 0 0 0 0
BITMAP
ENDCHAR
STARTCHAR infinity
ENCODING 176
SWIDTH 263 0
DWIDTH 9 0
BBX 0 0 0 0
BITMAP
ENDCHAR
STARTCHAR plusminus
ENCODING 177
SWIDTH 263 0
DWIDTH 9 0
BBX 0 0 0 0
BITMAP
ENDCHAR
STARTCHAR lessequal
ENCODING 178
SWIDTH 263 0
DWIDTH 9 0
BBX 0 0 0 0
BITMAP
ENDCHAR
STARTCHAR greaterequal
ENCODING 179
SWIDTH 263 0
DWIDTH 9 0
BBX 0 0 0 0
BITMAP
ENDCHAR
STARTCHAR yen
ENCODING 180
SWIDTH 263 0
DWIDTH 9 0
BBX 0 0 0 0
BITMAP
ENDCHAR
STARTCHAR mu
ENCODING 181
SWIDTH 263 0
DWIDTH 9 0
BBX 0 0 0 0
BITMAP
ENDCHAR
STARTCHAR partialdiff
ENCODING 182
SWIDTH 263 0
DWIDTH 9 0
BBX 0 0 0 0
BITMAP
ENDCHAR
STARTCHAR summation
ENCODING 183
SWIDTH 263 0
DWIDTH 9 0
BBX 0 0 0 0
BITMAP
ENDCHAR
STARTCHAR product
ENCODING 184
SWIDTH 263 0
DWIDTH 9 0
BBX 0 0 0 0
BITMAP
ENDCHAR
STARTCHAR pi
ENCODING 185
SWIDTH 263 0
DWIDTH 9 0
BBX 0 0 0 0
BITMAP
ENDCHAR
STARTCHAR integral
ENCODING 186
SWIDTH 263 0
DWIDTH 9 0
BBX 0 0 0 0
BITMAP
ENDCHAR
STARTCHAR ordfeminine
ENCODING 187
SWIDTH 263 0
DWIDTH 9 0
BBX 0 0 0 0
BITMAP
ENDCHAR
STARTCHAR ordmasculine
ENCODING 188
SWIDTH 263 0
DWIDTH 9 0
BBX 0 0 0 0
BITMAP
ENDCHAR
STARTCHAR Omega
ENCODING 189
SWIDTH 263 0
DWIDTH 9 0
BBX 0 0 0 0
BITMAP
ENDCHAR
STARTCHAR ae
ENCODING 190
SWIDTH 263 0
DWIDTH 9 0
BBX 0 0 0 0
BITMAP
ENDCHAR
STARTCHAR oslash
ENCODING 191
SWIDTH 263 0
DWIDTH 9 0
BBX 0 0 0 0
BITMAP
ENDCHAR
STARTCHAR questiondown
ENCODING 192
SWIDTH 263 0
DWIDTH 9 0
BBX 0 0 0 0
BITMAP
ENDCHAR
STARTCHAR exclamdown
ENCODING 193
SWIDTH 263 0
DWIDTH 9 0
BBX 0 0 0 0
BITMAP
ENDCHAR
STARTCHAR logicalnot
ENCODING 194
SWIDTH 263 0
DWIDTH 9 0
BBX 0 0 0 0
BITMAP
ENDCHAR
STARTCHAR radical
ENCODING 195
SWIDTH 263 0
DWIDTH 9 0
BBX 0 0 0 0
BITMAP
ENDCHAR
STARTCHAR florin
ENCODING 196
SWIDTH 263 0
DWIDTH 9 0
BBX 0 0 0 0
BITMAP
ENDCHAR
STARTCHAR approxequal
ENCODING 197
SWIDTH 263 0
DWIDTH 9 0
BBX 0 0 0 0
BITMAP
ENDCHAR
STARTCHAR Delta
ENCODING 198
SWIDTH 263 0
DWIDTH 9 0
BBX 0 0 0 0
BITMAP
ENDCHAR
STARTCHAR guillemotleft
ENCODING 199
SWIDTH 263 0
DWIDTH 9 0
BBX 0 0 0 0
BITMAP
ENDCHAR
STARTCHAR guillemotright
ENCODING 200
SWIDTH 263 0
DWIDTH 9 0
BBX 0 0 0 0
BITMAP
ENDCHAR
STARTCHAR ellipsis
ENCODING 201
SWIDTH 263 0
DWIDTH 9 0
BBX 0 0 0 0
BITMAP
ENDCHAR
STARTCHAR nbspace
ENCODING 202
SWIDTH 263 0
DWIDTH 9 0
BBX 0 0 0 0
BITMAP
ENDCHAR
STARTCHAR Agrave
ENCODING 203
SWIDTH 263 0
DWIDTH 9 0
BBX 0 0 0 0
BITMAP
ENDCHAR
STARTCHAR Atilde
ENCODING 204
SWIDTH 263 0
DWIDTH 9 0
BBX 0 0 0 0
BITMAP
ENDCHAR
STARTCHAR Otilde
ENCODING 205
SWIDTH 263 0
DWIDTH 9 0
BBX 0 0 0 0
BITMAP
ENDCHAR
STARTCHAR OE
ENCODING 206
SWIDTH 263 0
DWIDTH 9 0
BBX 0 0 0 0
BITMAP
ENDCHAR
STARTCHAR oe
ENCODING 207
SWIDTH 263 0
DWIDTH 9 0
BBX 0 0 0 0
BITMAP
ENDCHAR
STARTCHAR endash
ENCODING 208
SWIDTH 263 0
DWIDTH 9 0
BBX 0 0 0 0
BITMAP
ENDCHAR
STARTCHAR emdash
ENCODING 209
SWIDTH 263 0
DWIDTH 9 0
BBX 0 0 0 0
BITMAP
ENDCHAR
STARTCHAR quotedblleft
ENCODING 210
SWIDTH 263 0
DWIDTH 9 0
BBX 0 0 0 0
BITMAP
ENDCHAR
STARTCHAR quotedblright
ENCODING 211
SWIDTH 263 0
DWIDTH 9 0
BBX 0 0 0 0
BITMAP
ENDCHAR
STARTCHAR quoteleft
ENCODING 212
SWIDTH 263 0
DWIDTH 9 0
BBX 0 0 0 0
BITMAP
ENDCHAR
STARTCHAR quoteright
ENCODING 213
SWIDTH 263 0
DWIDTH 9 0
BBX 0 0 0 0
BITMAP
ENDCHAR
STARTCHAR divide
ENCODING 214
SWIDTH 263 0
DWIDTH 9 0
BBX 0 0 0 0
BITMAP
ENDCHAR
STARTCHAR lozenge
ENCODING 215
SWIDTH 263 0
DWIDTH 9 0
BBX 0 0 0 0
BITMAP
ENDCHAR
STARTCHAR ydieresis
ENCODING 216
SWIDTH 263 0
DWIDTH 9 0
BBX 0 0 0 0
BITMAP
ENDCHAR
STARTCHAR Ydieresis
ENCODING 217
SWIDTH 263 0
DWIDTH 9 0
BBX 0 0 0 0
BITMAP
ENDCHAR
STARTCHAR fraction
ENCODING 218
SWIDTH 263 0
DWIDTH 9 0
BBX 0 0 0 0
BITMAP
ENDCHAR
STARTCHAR currency
ENCODING 219
SWIDTH 263 0
DWIDTH 9 0
BBX 0 0 0 0
BITMAP
ENDCHAR
STARTCHAR guilsinglleft
ENCODING 220
SWIDTH 263 0
DWIDTH 9 0
BBX 0 0 0 0
BITMAP
ENDCHAR
STARTCHAR guilsinglright
ENCODING 221
SWIDTH 263 0
DWIDTH 9 0
BBX 0 0 0 0
BITMAP
ENDCHAR
STARTCHAR fi
ENCODING 222
SWIDTH 263 0
DWIDTH 9 0
BBX 0 0 0 0
BITMAP
ENDCHAR
STARTCHAR fl
ENCODING 223
SWIDTH 263 0
DWIDTH 9 0
BBX 0 0 0 0
BITMAP
ENDCHAR
STARTCHAR daggerdbl
ENCODING 224
SWIDTH 263 0
DWIDTH 9 0
BBX 0 0 0 0
BITMAP
ENDCHAR
STARTCHAR periodcentered
ENCODING 225
SWIDTH 263 0
DWIDTH 9 0
BBX 0 0 0 0
BITMAP
ENDCHAR
STARTCHAR quotesinglbase
ENCODING 226
SWIDTH 263 0
DWIDTH 9 0
BBX 0 0 0 0
BITMAP
ENDCHAR
STARTCHAR quotedblbase
ENCODING 227
SWIDTH 263 0
DWIDTH 9 0
BBX 0 0 0 0
BITMAP
ENDCHAR
STARTCHAR perthousand
ENCODING 228
SWIDTH 263 0
DWIDTH 9 0
BBX 0 0 0 0
BITMAP
ENDCHAR
STARTCHAR Acircumflex
ENCODING 229
SWIDTH 263 0
DWIDTH 9 0
BBX 0 0 0 0
BITMAP
ENDCHAR
STARTCHAR Ecircumflex
ENCODING 230
SWIDTH 263 0
DWIDTH 9 0
BBX 0 0 0 0
BITMAP
ENDCHAR
STARTCHAR Aacute
ENCODING 231
SWIDTH 263 0
DWIDTH 9 0
BBX 0 0 0 0
BITMAP
ENDCHAR
STARTCHAR Edieresis
ENCODING 232
SWIDTH 263 0
DWIDTH 9 0
BBX 0 0 0 0
BITMAP
ENDCHAR
STARTCHAR Egrave
ENCODING 233
SWIDTH 263 0
DWIDTH 9 0
BBX 0 0 0 0
BITMAP
ENDCHAR
STARTCHAR Iacute
ENCODING 234
SWIDTH 263 0
DWIDTH 9 0
BBX 0 0 0 0
BITMAP
ENDCHAR
STARTCHAR Icircumflex
ENCODING 235
SWIDTH 263 0
DWIDTH 9 0
BBX 0 0 0 0
BITMAP
ENDCHAR
STARTCHAR Idieresis
ENCODING 236
SWIDTH 263 0
DWIDTH 9 0
BBX 0 0 0 0
BITMAP
ENDCHAR
STARTCHAR Igrave
ENCODING 237
SWIDTH 263 0
DWIDTH 9 0
BBX 0 0 0 0
BITMAP
ENDCHAR
STARTCHAR Oacute
ENCODING 238
SWIDTH 263 0
DWIDTH 9 0
BBX 0 0 0 0
BITMAP
ENDCHAR
STARTCHAR Ocircumflex
ENCODING 239
SWIDTH 263 0
DWIDTH 9 0
BBX 0 0 0 0
BITMAP
ENDCHAR
STARTCHAR apple
ENCODING 240
SWIDTH 263 0
DWIDTH 9 0
BBX 0 0 0 0
BITMAP
ENDCHAR
STARTCHAR Ograve
ENCODING 241
SWIDTH 263 0
DWIDTH 9 0
BBX 0 0 0 0
BITMAP
ENDCHAR
STARTCHAR Uacute
ENCODING 242
SWIDTH 263 0
DWIDTH 9 0
BBX 0 0 0 0
BITMAP
ENDCHAR
STARTCHAR Ucircumflex
ENCODING 243
SWIDTH 263 0
DWIDTH 9 0
BBX 0 0 0 0
BITMAP
ENDCHAR
STARTCHAR Ugrave
ENCODING 244
SWIDTH 263 0
DWIDTH 9 0
BBX 0 0 0 0
BITMAP
ENDCHAR
STARTCHAR dotlessi
ENCODING 245
SWIDTH 263 0
DWIDTH 9 0
BBX 0 0 0 0
BITMAP
ENDCHAR
STARTCHAR circumflex
ENCODING 246
SWIDTH 263 0
DWIDTH 9 0
BBX 0 0 0 0
BITMAP
ENDCHAR
STARTCHAR tilde
ENCODING 247
SWIDTH 263 0
DWIDTH 9 0
BBX 0 0 0 0
BITMAP
ENDCHAR
STARTCHAR macron
ENCODING 248
SWIDTH 263 0
DWIDTH 9 0
BBX 0 0 0 0
BITMAP
ENDCHAR
STARTCHAR breve
ENCODING 249
SWIDTH 263 0
DWIDTH 9 0
BBX 0 0 0 0
BITMAP
ENDCHAR
STARTCHAR dotaccent
ENCODING 250
SWIDTH 263 0
DWIDTH 9 0
BBX 0 0 0 0
BITMAP
ENDCHAR
STARTCHAR ring
ENCODING 251
SWIDTH 263 0
DWIDTH 9 0
BBX 0 0 0 0
BITMAP
ENDCHAR
STARTCHAR cedilla
ENCODING 252
SWIDTH 263 0
DWIDTH 9 0
BBX 0 0 0 0
BITMAP
ENDCHAR
STARTCHAR hungarumlaut
ENCODING 253
SWIDTH 263 0
DWIDTH 9 0
BBX 0 0 0 0
BITMAP
ENDCHAR
STARTCHAR ogonek
ENCODING 254
SWIDTH 263 0
DWIDTH 9 0
BBX 0 0 0 0
BITMAP
ENDCHAR
STARTCHAR caron
ENCODING 255
SWIDTH 263 0
DWIDTH 9 0
BBX 0 0 0 0
BITMAP
ENDCHAR
ENDFONT
